<svg xmlns="http://www.w3.org/2000/svg" version="1.1" xmlns:xlink="http://www.w3.org/1999/xlink" xmlns:svgjs="http://svgjs.com/svgjs" width="1440" height="560" preserveAspectRatio="none" viewBox="0 0 1440 560"><g mask="url(&quot;#SvgjsMask1012&quot;)" fill="none"><rect width="1440" height="560" x="0" y="0" fill="rgba(197, 228, 231, 1)"></rect><path d="M0,447.769C93.232,446.118,193.623,473.718,273.129,424.997C353.019,376.041,365.218,268.152,418.679,191.204C487.258,92.495,652.713,27.511,631.48,-90.793C609.952,-210.736,414.781,-198.219,332.631,-288.226C253.984,-374.394,284.393,-554.802,173.874,-592.161C64.85,-629.015,-26.026,-492.846,-130.61,-444.818C-216.705,-405.281,-311.218,-392.447,-386.439,-334.851C-474.829,-267.171,-591.252,-197.182,-599.054,-86.131C-606.925,25.895,-482.289,97.712,-423.555,193.431C-373.534,274.95,-361.412,385.544,-279.417,434.781C-197.829,483.773,-95.152,449.454,0,447.769" fill="#add9dd"></path><path d="M1440 935.146C1510.609 935.761 1525.852 824.0799999999999 1586.813 788.4449999999999 1652.2649999999999 750.185 1751.074 782.206 1800.289 724.538 1849.4270000000001 666.96 1854.412 575.491 1829.571 503.988 1805.6770000000001 435.211 1722.656 411.351 1672.987 358.115 1625.849 307.591 1610.555 223.815 1545.764 199.79899999999998 1480.662 175.66699999999997 1410.256 212.762 1345.026 236.548 1283.484 258.989 1225.465 287.705 1178.753 333.629 1129.153 382.39300000000003 1085.63 439.015 1070.122 506.82 1053.906 577.721 1044.859 662.972 1090.472 719.624 1136.309 776.5550000000001 1232.608 747.539 1294.8220000000001 785.9010000000001 1355.119 823.081 1369.165 934.529 1440 935.146" fill="#ddeff1"></path></g><defs><mask id="SvgjsMask1012"><rect width="1440" height="560" fill="#ffffff"></rect></mask></defs></svg>